<svg width="22" height="16" viewBox="0 0 22 16" fill="none" xmlns="http://www.w3.org/2000/svg">
<path fill-rule="evenodd" clip-rule="evenodd" d="M11 14.25C6.87847 14.25 3.32713 11.6818 1.80612 7.99831C3.27537 4.40628 6.88228 1.75 11 1.75C15.1177 1.75 18.7246 4.40623 20.1938 7.99821C18.6729 11.6818 15.1215 14.25 11 14.25ZM21.7022 7.73666C21.7701 7.9176 21.7635 8.10823 21.6978 8.27489C20.0309 12.6405 15.8776 15.75 11 15.75C6.11939 15.75 1.96399 12.6368 0.299104 8.26703C0.230293 8.08642 0.235876 7.89574 0.30073 7.72873C1.90586 3.45832 6.12106 0.25 11 0.25C15.882 0.25 20.0994 3.46229 21.7022 7.73666ZM7.75 8C7.75 6.20507 9.20507 4.75 11 4.75C12.7949 4.75 14.25 6.20507 14.25 8C14.25 9.79493 12.7949 11.25 11 11.25C9.20507 11.25 7.75 9.79493 7.75 8ZM11 3.25C8.37665 3.25 6.25 5.37665 6.25 8C6.25 10.6234 8.37665 12.75 11 12.75C13.6234 12.75 15.75 10.6234 15.75 8C15.75 5.37665 13.6234 3.25 11 3.25Z" fill="#18191A"/>
<path d="M19.1223 1L9.53816 9.57558L3.12226 15.1511" stroke="#18191A" stroke-width="1.5" stroke-linecap="round"/>
</svg>
